<svg width="60" height="60" viewBox="0 0 60 60" fill="none" xmlns="http://www.w3.org/2000/svg">
<circle cx="30" cy="30" r="28.5" fill="#FEC210" stroke="#231F20" stroke-width="3"/>
<path d="M20.7675 36.9226H23.0752V41.6314L28.961 36.9226H34.6137C35.8864 36.9226 36.9214 35.8876 36.9214 34.6149V25.3841C36.9214 24.1114 35.8864 23.0764 34.6137 23.0764H20.7675C19.4948 23.0764 18.4598 24.1114 18.4598 25.3841V34.6149C18.4598 35.8876 19.4948 36.9226 20.7675 36.9226Z" fill="black"/>
<path d="M39.229 18.4611H25.3829C24.1102 18.4611 23.0752 19.4961 23.0752 20.7688H36.9213C38.194 20.7688 39.229 21.8038 39.229 23.0764V32.3072C40.5017 32.3072 41.5367 31.2722 41.5367 29.9995V20.7688C41.5367 19.4961 40.5017 18.4611 39.229 18.4611Z" fill="black"/>
</svg>
