<svg width="60" height="60" viewBox="0 0 60 60" fill="none" xmlns="http://www.w3.org/2000/svg">
<g id="Group 334">
<circle id="Ellipse 8" cx="30" cy="30" r="28.5" fill="white" stroke="#231F20" stroke-width="3"/>
<path id="Vector" d="M18 24H42C43.104 24 44 23.104 44 22C44 20.896 43.104 20 42 20H18C16.896 20 16 20.896 16 22C16 23.104 16.896 24 18 24ZM42 28H18C16.896 28 16 28.896 16 30C16 31.104 16.896 32 18 32H42C43.104 32 44 31.104 44 30C44 28.896 43.104 28 42 28ZM42 36H18C16.896 36 16 36.896 16 38C16 39.104 16.896 40 18 40H42C43.104 40 44 39.104 44 38C44 36.896 43.104 36 42 36Z" fill="black"/>
</g>
</svg>
