<svg width="24" height="25" viewBox="0 0 24 25" fill="none" xmlns="http://www.w3.org/2000/svg">
<path d="M23.6954 0.942124C23.5604 0.806554 23.3899 0.71269 23.2039 0.671569C23.0179 0.630448 22.8241 0.643779 22.6454 0.709995L0.645353 8.78406C0.455621 8.8567 0.292272 8.98586 0.177003 9.15441C0.0617345 9.32296 0 9.52292 0 9.72772C0 9.93252 0.0617345 10.1325 0.177003 10.301C0.292272 10.4696 0.455621 10.5987 0.645353 10.6714L10.2454 14.5469L14.0854 24.2358C14.1575 24.4189 14.2812 24.5766 14.4411 24.6896C14.601 24.8026 14.7902 24.8659 14.9854 24.8716C15.1874 24.8675 15.3835 24.8016 15.5478 24.6827C15.712 24.5637 15.8367 24.3974 15.9054 24.2055L23.9054 2.00185C23.9735 1.82328 23.9899 1.62885 23.9527 1.44123C23.9156 1.2536 23.8263 1.0805 23.6954 0.942124ZM14.9854 21.0365L12.1954 13.9717L16.9854 9.1373L15.5754 7.71425L10.7454 12.589L3.78535 9.73277L21.3154 3.34416L14.9854 21.0365Z" fill="black"/>
</svg>
